<?xml version="1.0" encoding="utf-8"?>
<!-- Generator: Adobe Illustrator 27.5.0, SVG Export Plug-In . SVG Version: 6.00 Build 0)  -->
<svg version="1.1" id="Layer_2_00000124873664753403588490000004589864508687832452_"
	 xmlns="http://www.w3.org/2000/svg" xmlns:xlink="http://www.w3.org/1999/xlink" x="0px" y="0px" viewBox="0 0 1958.5 1733.4"
	 style="enable-background:new 0 0 1958.5 1733.4;" xml:space="preserve">
    <style>
        path {
            fill: #0092d8;
        }
        <!--@media (prefers-color-scheme: dark) {
            path {
                fill: #fff;
            }
        }-->
    </style>
  <path fill-rule="evenodd" d="M0 0h16v16H0z"/>
<g id="svg791">
	<g id="g2523-9-0-2">
		<path id="path4621-04-4" class="st0" d="M986.6,1711.2c-114,0-213.8-22.9-299.1-68.6c-83.8-45.7-149.1-109.6-196.2-191.8
			c-45.7-83.8-68.6-181.2-68.6-292.2c0-65.5,13.7-140,41.2-223.8c28.8-85.3,67.6-171.2,116.5-257.9L939.7,24.7
			c1-1.7,2.7-2.7,4.7-2.7h311.7c4.1,0,6.7,4.5,4.6,8L838.9,752.1c-1.5,2.6-0.5,6.1,2.2,7.4l0,0c2.2,1.1,5.1,0.5,6.6-1.5
			c22.8-30.2,55.3-54.3,97.9-71.8c44.1-18.3,92.1-27.4,143.9-27.4c92.9,0,173.6,21.2,241.9,63.9c69.9,41.2,124,99.8,162.2,175.8
			s57.1,165.9,57.1,269.4c0,109.6-23.5,205.5-70.7,287.7c-45.7,80.7-111.2,143.9-196.2,189.5c-83.8,44.1-182.6,66.2-296.7,66.2l0,0
			h-0.4V1711.2z M986.6,1469.3c85.3,0,153.8-26.6,205.5-80c51.7-54.7,77.6-127.1,77.6-216.9c0-89.8-25.9-163.5-77.6-216.9
			c-51.7-54.7-120.2-82.2-205.5-82.2s-153.8,27.4-205.5,82.2c-51.7,53.4-77.6,125.5-77.6,216.9c0,91.4,25.9,162.2,77.6,216.9
			C832.8,1442.7,901.4,1469.3,986.6,1469.3z"/>
	</g>
</g>
</svg>
